<?xml version="1.0" encoding="UTF-8" standalone="no"?>
<!-- Creator: CorelDRAW -->

<svg
   xmlns:dc="http://purl.org/dc/elements/1.1/"
   xmlns:cc="http://creativecommons.org/ns#"
   xmlns:rdf="http://www.w3.org/1999/02/22-rdf-syntax-ns#"
   xmlns:svg="http://www.w3.org/2000/svg"
   xmlns="http://www.w3.org/2000/svg"
   xmlns:sodipodi="http://sodipodi.sourceforge.net/DTD/sodipodi-0.dtd"
   xmlns:inkscape="http://www.inkscape.org/namespaces/inkscape"
   height="37.0266mm"
   id="svg2"
   inkscape:version="0.48.4 r9939"
   sodipodi:docname="info.svg"
   sodipodi:version="0.32"
   space="preserve"
   style="shape-rendering:geometricPrecision; text-rendering:geometricPrecision; image-rendering:optimizeQuality; fill-rule:evenodd; clip-rule:evenodd"
   viewBox="0 0 12.5915 12.5915"
   width="37.0266mm"
   version="1.1">
  <metadata
     id="metadata3">
    <rdf:RDF>
      <cc:Work
         rdf:about="">
        <dc:title>information sign</dc:title>
        <dc:description />
        <dc:subject>
          <rdf:Bag>
            <rdf:li>info</rdf:li>
            <rdf:li>icon</rdf:li>
            <rdf:li>information</rdf:li>
            <rdf:li>sign</rdf:li>
          </rdf:Bag>
        </dc:subject>
        <dc:publisher>
          <cc:Agent
             rdf:about="http://www.openclipart.org/">
            <dc:title>Open Clip Art Library</dc:title>
          </cc:Agent>
        </dc:publisher>
        <dc:creator>
          <cc:Agent>
            <dc:title>mo</dc:title>
          </cc:Agent>
        </dc:creator>
        <dc:rights>
          <cc:Agent>
            <dc:title>mo</dc:title>
          </cc:Agent>
        </dc:rights>
        <dc:date />
        <dc:format>image/svg+xml</dc:format>
        <dc:type
           rdf:resource="http://purl.org/dc/dcmitype/StillImage" />
        <cc:license
           rdf:resource="http://web.resource.org/cc/PublicDomain" />
        <dc:language>en</dc:language>
      </cc:Work>
      <cc:License
         rdf:about="http://web.resource.org/cc/PublicDomain">
        <cc:permits
           rdf:resource="http://web.resource.org/cc/Reproduction" />
        <cc:permits
           rdf:resource="http://web.resource.org/cc/Distribution" />
        <cc:permits
           rdf:resource="http://web.resource.org/cc/DerivativeWorks" />
      </cc:License>
    </rdf:RDF>
  </metadata>
  <sodipodi:namedview
     bordercolor="#666666"
     borderopacity="1.0"
     id="base"
     inkscape:current-layer="svg2"
     inkscape:cx="66.650684"
     inkscape:cy="63.877902"
     inkscape:pageopacity="0.0"
     inkscape:pageshadow="2"
     inkscape:window-height="1033"
     inkscape:window-width="1920"
     inkscape:window-x="-4"
     inkscape:window-y="-4"
     inkscape:zoom="2.8506834"
     pagecolor="#ffffff"
     showgrid="false"
     inkscape:window-maximized="1" />
  <defs
     id="defs4">
    <style
       id="style6"
       type="text/css">
   
    .fil0 {fill:#EF7900}
   
  </style>
  </defs>
  <g
     id="Layer_x0020_1"
     transform="matrix(0.60695309,0,0,0.60160551,2.4913666,2.5587008)"
     style="fill:#2c89a0">
    <path
       class="fil0"
       d="m 6.29577,0 c 3.47651,0 6.29577,2.81926 6.29577,6.29577 0,3.47651 -2.81926,6.29577 -6.29577,6.29577 C 2.81926,12.59154 0,9.77228 0,6.29577 0,2.81926 2.81926,0 6.29577,0 z m 0.946169,4.51008 0,5.59696 0.746244,0 0,0.666294 -0.133238,0 -3.25159,0 0,-0.666294 0.746278,0 0,-4.93067 -0.746278,0 0,-0.666294 0.133272,0 2.50531,0 2e-6,4e-6 z M 5.296309,2.75105 c 0,-0.239884 0.086649,-0.455316 0.259879,-0.646332 0.17323,-0.191016 0.397573,-0.286507 0.672959,-0.286507 l 0.133272,0 c 0.230974,0 0.444196,0.084405 0.639633,0.253214 0.195471,0.168775 0.293172,0.395328 0.293172,0.679625 0,0.239849 -0.084371,0.455282 -0.25318,0.646298 C 6.873235,3.588364 6.646716,3.683855 6.362419,3.683855 l -0.133272,0 C 5.998173,3.683855 5.784951,3.59945 5.589514,3.430675 5.394043,3.261866 5.296308,3.035313 5.296308,2.75105 l 1e-6,0 z"
       id="path10"
       style="fill:#2c89a0"
       inkscape:connector-curvature="0" />
  </g>
</svg>
